<?xml version="1.0" encoding="UTF-8"?>
<svg width="750" height="375" xmlns="http://www.w3.org/2000/svg" xmlns:svg="http://www.w3.org/2000/svg">
 <g>
  <title>Layer 1</title>
  <rect fill="#f1f1f7" stroke="#f1f1f7" stroke-width="0" x="0" y="0" width="750" height="375" id="svg_10"/>
  <g id="surface1">
   <path d="m42.62109,133.707031c0,-6.234383 -1.71875,-11.039063 -5.160149,-14.417969c-3.445313,-3.375 -8.316412,-5.066414 -14.613281,-5.066414c-2.015631,0 -3.019529,-0.84375 -3.019529,-2.53125c0,-1.167969 0.421869,-1.933586 1.265619,-2.289055c0.84375,-0.355461 2.695311,-0.535164 5.550779,-0.535164c0,0 14.808599,0.195313 14.808599,0.195313c3.378902,0 6.39843,-0.066414 9.05859,-0.195313c4.09375,-0.261719 9.710941,-0.714836 16.855469,-1.363281c9.609383,-0.910156 17.242203,-1.363266 22.890633,-1.363266c22.019531,0 39.667976,5.632797 52.949226,16.89843c13.28125,11.269531 19.921875,26.253906 19.921875,44.960938c0,24.09375 -8.929688,43.285156 -26.789063,57.574219c-13.121086,10.453125 -27.894531,15.683594 -44.328133,15.683594c-2.726555,0 -8.214836,-0.261719 -16.460938,-0.78125c-4.675781,-0.257813 -9.484383,-0.390625 -14.417969,-0.390625c-11.5625,0 -19.257809,0.328125 -23.08984,0.976547c-2.988281,0.519531 -5,0.777344 -6.039059,0.777344c-1.492191,0 -2.242191,-0.941406 -2.242191,-2.824219c0,-1.296875 0.8125,-2.109375 2.4375,-2.433594c4.02734,-0.78125 6.769531,-2.4375 8.230469,-4.96875c1.460941,-2.535156 2.191402,-6.886719 2.191402,-13.054688c0,0 0,-84.851563 0,-84.851563l-0.000011,0.000015zm22.406254,-5.257813c0,0 0,85.53125 0,85.53125c0,0 1.171875,8.863281 1.171875,8.863281c2.140633,7.535156 10.164063,11.300781 24.058594,11.300781c15.07032,0 27.019531,-5.210938 35.85157,-15.632813c8.832024,-10.425781 13.249992,-24.503906 13.249992,-42.230469c0,-18.574219 -5.3125,-33.707031 -15.929695,-45.398438c-10.617188,-11.691414 -24.335938,-17.535164 -41.160156,-17.535164c-6.882813,0 -11.589844,0.910164 -14.125,2.726563c-2.078133,1.429688 -3.117195,5.554688 -3.117195,12.374992l0.000015,0.000015zm0,0" fill="rgb(12.156677%,47.450256%,58.824158%)" fill-rule="nonzero" id="svg_1"/>
   <path d="m216.511719,210.667969c0,0 0.78125,9.742188 0.78125,9.742188c0.777344,5 2.679688,8.832031 5.699219,11.496094c3.019531,2.660156 6.964844,3.992188 11.835938,3.992188c3.179688,0 4.773438,0.972656 4.773438,2.921875c0,1.882813 -2.113266,2.824234 -6.332016,2.824234c-1.820313,0 -4.417984,-0.160172 -7.792984,-0.48439c-8.445297,-0.910156 -15.296875,-1.363281 -20.558578,-1.363281c-6.492188,0 -11.625,0.355469 -15.39064,1.070313c-3.246078,0.648438 -5.585938,0.972656 -7.011719,0.972656c-1.429688,0 -2.339828,-0.679688 -2.730469,-2.042969c0,0 -0.195313,-0.78125 -0.195313,-0.78125c0,0 2.82814,-2.238281 2.82814,-2.238281c4.675781,-1.691406 7.777328,-3.753906 9.300781,-6.1875c1.527328,-2.4375 2.289047,-6.480469 2.289047,-12.128906c0,0 0.097672,-8.671875 0.097672,-8.671875c0,0 0,-77.640625 0,-77.640625c0,-5.972664 -1.039063,-10.226555 -3.117188,-12.761726c-2.07814,-2.53125 -5.875,-4.21875 -11.398453,-5.066414c-3.3125,-0.519524 -5.4375,-1.019524 -6.378906,-1.507805c-0.941406,-0.488281 -1.414063,-1.316414 -1.414063,-2.484375c0,-1.82032 0.78125,-2.69532 2.339844,-2.628906c1.167969,0.0625 2.921875,0.324219 5.261719,0.777336c2.335938,0.519531 6.265625,0.78125 11.785156,0.78125c3.636719,0 8.152344,-0.230469 13.542969,-0.683586c0,0 7.10939,-0.585938 7.10939,-0.585938c6.691406,-0.519531 11.820313,-0.777344 15.390625,-0.777344c2.144531,0 3.214844,0.777344 3.214844,2.335953c0,1.171867 -0.160156,1.949211 -0.484375,2.339836c-0.324234,0.390633 -1.136734,0.683594 -2.4375,0.875c-4.675781,0.78125 -7.679703,2.078133 -9.011734,3.898438c-1.328125,1.816414 -1.996078,5.519531 -1.996078,11.105484c0,0 0,82.902344 0,82.902344l-0.000015,-0.000015zm0,0" fill="rgb(22.744751%,73.33374%,90.196228%)" fill-rule="nonzero" id="svg_2"/>
   <path d="m353.703125,94.421883c17.703125,0 33.132813,3.789047 46.292969,11.359367c0,0 9.371094,5.398438 9.371094,5.398438c1.894531,1.136719 3.597656,1.703133 5.113281,1.703133c1.890625,0 3.3125,-0.757813 4.257813,-2.27343c0,0 2.984375,-4.402351 2.984375,-4.402351c0.472656,-0.753899 1.324219,-1.132813 2.554688,-1.132813c2.933594,0 4.402344,3.074226 4.402344,9.226563c0,0 0.140625,10.367188 0.140625,10.367188c0,0 0,12.921883 0,12.921883c0,0 1.136719,10.792969 1.136719,10.792969c0,0 1.277344,6.390625 1.277344,6.390625c0.570313,3.121094 0.851563,5.914063 0.851563,8.375c0,3.597672 -1.324219,5.398453 -3.976563,5.398453c-1.511719,0 -2.507813,-1.136719 -2.980469,-3.410172c-0.757813,-3.597656 -3.382813,-9.109375 -7.878906,-16.542969c-4.5,-7.429688 -8.78125,-13.324219 -12.851563,-17.675781c-16.472656,-17.796875 -34.789063,-26.699211 -54.953125,-26.699211c-17.894531,0 -32.425781,7.363274 -43.59375,22.082024c-11.171875,14.722656 -16.757813,33.820313 -16.757813,57.29689c0,30.671875 9.136719,55.144516 27.40625,73.414063c13.726563,13.632813 28.683594,20.449219 44.871094,20.449219c9.5625,0 19.691406,-2.296875 30.386719,-6.886719c10.699219,-4.59375 19.125,-10.296875 25.277313,-17.113297c0,0 9.230499,-10.082016 9.230499,-10.082016c1.324219,-1.51564 2.601532,-2.320313 3.832001,-2.414063c1.800781,-0.09375 2.699249,0.949219 2.699249,3.125c0,3.882813 -3.738281,10.082031 -11.21875,18.601563c-19.59375,22.152344 -43.78125,33.226563 -72.558594,33.226563c-27.832031,0 -50.433594,-8.898438 -67.804688,-26.695313c-17.371094,-17.79689 -26.058609,-40.941422 -26.058609,-69.4375c0,-15.617203 3.26564,-30.90625 9.79689,-45.863281c6.53125,-14.957031 15.242188,-27.124992 26.128906,-36.496094c17.890625,-15.335945 38.765625,-23.003899 62.621094,-23.003899l0,-0.000031zm0,0" fill="rgb(22.744751%,73.33374%,90.196228%)" fill-rule="nonzero" id="svg_3"/>
   <path d="m537.203125,173.96875c0,0 -46.175781,0 -46.175781,0c-4.613281,0 -7.453125,0.601563 -8.527344,1.804688c-1.070313,1.199219 -1.605469,4.367188 -1.605469,9.496094c0,0 0,24.257813 0,24.257813c0,9.222656 1.492188,15.863281 4.480469,19.921875c2.988281,4.058594 7.890625,6.089844 14.710938,6.089844c2.207031,0 3.3125,0.84375 3.3125,2.53125c0,2.015625 -1.691406,3.019531 -5.066406,3.019531c-1.167969,0 -3.476563,-0.195313 -6.917969,-0.582031c-7.664063,-0.910156 -14.707031,-1.363281 -21.136719,-1.363281c-4.027344,0 -9.386719,0.355469 -16.074219,1.070313c-3.964844,0.453125 -6.464844,0.679688 -7.503906,0.679688c-2.078125,0 -3.117188,-1.070313 -3.117188,-3.214844c0,-1.363281 0.8125,-2.140625 2.4375,-2.335938c4.414063,-0.714844 7.582031,-2.726563 9.496094,-6.039063c1.917969,-3.3125 2.875,-8.347656 2.875,-15.101563c0,0 0.097656,-5.257813 0.097656,-5.257813c0,0 0,-81.246086 0,-81.246086c0,-4.742188 -1.28125,-8.234375 -3.847656,-10.472656c-2.566437,-2.24218 -7.324249,-4.042969 -14.273468,-5.40625c-1.816406,-0.390633 -2.726532,-1.332031 -2.726532,-2.828133c0,-1.882797 1.039032,-2.824219 3.117188,-2.824219c1.167969,0 3.3125,0.226563 6.429688,0.683594c5.261719,0.777336 11.429688,1.167969 18.507813,1.167969c2.40625,0 7.535156,-0.421883 15.394531,-1.265633c4.675781,-0.457016 8.214813,-0.683586 10.617188,-0.683586c2.339844,0 3.507813,0.878906 3.507813,2.628906c0,1.429688 -0.941437,2.308594 -2.824219,2.632813c-7.664063,1.296875 -11.496094,6.136719 -11.496094,14.515625c0,0 0,25.035156 0,25.035156c0,6.625 0.46875,10.503922 1.410156,11.64064c0.945313,1.136719 4.078125,1.707031 9.402344,1.707031c0,0 45.496094,0 45.496094,0c3.960938,0 6.378906,-0.79689 7.253906,-2.386719c0.878906,-1.59375 1.316406,-5.992203 1.316406,-13.20314c0,0 0,-20.941406 0,-20.941406c0,-8.316406 -4.578125,-13.316406 -13.734375,-15.003906c0,0 -4.480469,-0.875 -4.480469,-0.875c-1.820313,-0.328133 -2.730469,-1.269531 -2.730469,-2.828133c0,-1.882797 1.039063,-2.824219 3.117188,-2.824219c1.171875,0 3.3125,0.226563 6.429688,0.683586c5.328125,0.777344 11.527344,1.167976 18.609375,1.167976c2.464844,0 7.597656,-0.421883 15.390625,-1.265633c4.675781,-0.457024 8.214844,-0.683594 10.617188,-0.683594c2.339844,0 3.507813,0.878914 3.507813,2.628914c0,1.429688 -0.941406,2.308586 -2.824219,2.632813c-7.664063,1.296875 -11.496094,6.136719 -11.496094,14.515625c0,0 0,83.679695 0,83.679695c0,9.222656 1.476563,15.863281 4.433594,19.921875c2.953125,4.058594 7.777344,6.089844 14.464844,6.089844c2.402344,0 3.605469,0.84375 3.605469,2.53125c0,2.015625 -1.6875,3.019531 -5.066406,3.019531c-1.167969,0 -3.441406,-0.195313 -6.820313,-0.582031c-7.726563,-0.910156 -14.773438,-1.363281 -21.136719,-1.363281c-4.09375,0 -9.484375,0.355469 -16.171875,1.070313c-3.960938,0.453125 -6.460938,0.679688 -7.5,0.679688c-2.078125,0 -3.117188,-1.070313 -3.117188,-3.214844c0,-1.363281 0.808594,-2.140625 2.433594,-2.335938c4.417969,-0.714844 7.582031,-2.726563 9.5,-6.039063c1.914063,-3.3125 2.871094,-8.347656 2.871094,-15.101563c0,0 0.097656,-5.257813 0.097656,-5.257813c0,0 0,-21.433578 0,-21.433578c0,-6.363281 -0.421875,-10.210938 -1.265625,-11.542969c-0.84375,-1.332031 -3.28125,-2 -7.304688,-2l0,-0.000015zm0,0" fill="rgb(22.744751%,73.33374%,90.196228%)" fill-rule="nonzero" id="svg_4"/>
   <path d="m638.417969,129.644531c0,0 0,21.140625 0,21.140625c0,6.039063 0.4375,9.871094 1.316406,11.496094c0.875,1.621094 3.003906,2.433594 6.378906,2.433594c0,0 2.921875,-0.097656 2.921875,-0.097656c0,0 4.289063,-0.097672 4.289063,-0.097672c0,0 8.277344,0 8.277344,0c6.429688,0 11.398438,-3.539063 14.90625,-10.617188c0,0 2.242188,-4.773438 2.242188,-4.773438c0.582031,-1.167969 1.558594,-1.785156 2.921875,-1.851563c1.429688,-0.0625 2.140625,0.8125 2.140625,2.632813c0,0.519531 -0.09375,1.945313 -0.289063,4.285156c-0.132813,1.6875 -0.195313,3.117188 -0.195313,4.285156c0,2.07814 0.292969,6.949234 0.875,14.613281c0.390625,5 0.585938,9.351563 0.585938,13.054703c0,0 0.097717,4.96875 0.097717,4.96875c0,0.90625 -0.097717,1.523438 -0.29303,1.851547c-0.257751,0.386719 -0.78125,0.617203 -1.558533,0.679703c-1.625,0.128906 -2.628967,-1.105484 -3.019531,-3.70314c-0.84375,-5.519531 -2.792969,-9.707031 -5.84375,-12.566406c-1.691406,-1.558594 -3.753906,-2.5625 -6.1875,-3.019531c-2.4375,-0.453125 -7,-0.679688 -13.6875,-0.679688c0,0 -6.625,0 -6.625,0c-3.117188,0 -5.242188,0.46875 -6.378906,1.410156c-1.13678,0.941406 -1.902344,2.84375 -2.289063,5.699219c-0.390686,3.246094 -0.585938,8.378906 -0.585938,15.394531c0,0 0,8.765625 0,8.765625c0,9.15625 0.714783,15.75 2.14447,19.777344c1.101563,2.92189 2.402344,4.902344 3.894531,5.941406c1.496094,1.039063 3.800781,1.558594 6.917969,1.558594c26.367249,0 43.609436,-8.019531 51.726563,-24.0625c0.457031,-0.777344 0.847717,-1.203125 1.171936,-1.265625c0.648438,-0.128906 1.25,0.082031 1.800781,0.632813c0.55072,0.550781 0.828125,1.25 0.828125,2.09375c0,6.363281 -1.722656,12.535156 -5.164063,18.507813c-2.855469,5.066406 -6.429688,8.6875 -10.714844,10.863266c-4.285156,2.175781 -9.96875,3.26564 -17.046875,3.26564c-4.15625,0 -8.769531,-0.261719 -13.835938,-0.78125c0,0 -11.300781,-1.070313 -11.300781,-1.070313c-4.15625,-0.390625 -9.773438,-0.585938 -16.851563,-0.585938c-4.742188,0 -11.949219,0.292969 -21.625,0.878906c-2.664063,0.191406 -4.582031,0.289063 -5.75,0.289063c-1.558594,0 -2.402344,-0.710938 -2.53125,-2.140625c-0.066406,-1.17189 0.648438,-2.04689 2.140625,-2.632813c3.703125,-1.425781 6.21875,-2.9375 7.550781,-4.527344c1.332031,-1.59375 2.386719,-4.433594 3.167969,-8.523438c0.714844,-3.445313 1.070313,-8.121094 1.070313,-14.03125c0,0 0,-77.25 0,-77.25c0,-7.273445 -1.183594,-12.210945 -3.554688,-14.808594c-2.371094,-2.597656 -7.289063,-4.41407 -14.757813,-5.453133c-1.753906,-0.261719 -2.632813,-1.203117 -2.632813,-2.828117c0,-1.492203 1.074219,-2.238289 3.214844,-2.238289c0.457031,0 1.429688,0.0625 2.921875,0.195313c1.171875,0.0625 2.761719,0.097656 4.773438,0.097656c0,0 9.839844,0.386719 9.839844,0.386719c0,0 36.921875,0.390633 36.921875,0.390633c21.238281,0 34.324219,-0.292969 39.257813,-0.875c0.519531,-0.066414 0.976563,-0.097664 1.363281,-0.097664c1.886719,0 2.828125,1.070313 2.828125,3.214844c0,1.492188 0.195313,4.15625 0.582031,7.988289c0.519531,5.64843 0.78125,9.707024 0.78125,12.175766c0,4.9375 -1.265625,7.46875 -3.800781,7.597672c-1.234375,0.066406 -1.851563,-1.363281 -1.851563,-4.285172c0,-6.429688 -2.351563,-11.089836 -7.0625,-13.980469c-4.707031,-2.890625 -12.320313,-4.335938 -22.84375,-4.335938c0,0 -11.882813,0 -11.882813,0c0,0 -6.625,0.78125 -6.625,0.78125c-3.3125,1.039063 -4.96875,4.320313 -4.96875,9.839844c0,0 -0.097656,3.992188 -0.097656,3.992188l-0.000061,0.000031zm0,0" fill="rgb(22.744751%,73.33374%,90.196228%)" fill-rule="nonzero" id="svg_5"/>
   <path d="m346.234375,248.402344c-0.660156,5.75 -0.339844,12.433594 0.425781,18.597656c0.265625,2.164063 2.277344,3.117188 4.039063,2.632813c0.894531,0.445313 1.914063,0.550781 3.019531,0.308594c0.101563,0.074219 0.175781,0.167969 0.285156,0.242188c2.101563,1.417969 4.082031,0.867188 5.859375,-0.632813c0.601563,-0.277344 1.132813,-0.785156 1.503906,-1.535156c0.335938,-0.40625 0.664063,-0.832031 0.976563,-1.285156c0.640625,-0.304688 1.230469,-0.867188 1.660156,-1.769531c0.855469,-1.78125 1.761719,-3.820313 2.578125,-5.953125c0.230469,-0.535187 0.445313,-1.074219 0.691406,-1.597687c0.242188,-0.515625 0.359406,-1.011719 0.382813,-1.480453c1.726563,-5.476563 2.417969,-11.097656 -0.179688,-14.980469c0.320313,-4.289063 0.210938,-8.402344 -0.878906,-11.64064c0.050781,-0.609375 0.117188,-1.210938 0.160156,-1.808578c0.101563,-1.402344 -1.210938,-2.175781 -2.5625,-2.246094c-0.601563,-0.605469 -1.265625,-1.15625 -2.078125,-1.59375c-1.15625,-0.621094 -3.03125,-0.046875 -3.652344,1.082031c-1.257813,-0.136719 -2.75,0.4375 -3.066406,1.691406c0,0 -0.03125,0.113281 -0.03125,0.113281c-0.074219,0.042969 -0.136719,0.101563 -0.210938,0.152344c-0.039063,-0.105469 -0.074219,-0.214844 -0.113281,-0.316406c-0.359375,-1.01564 -1.410156,-1.5 -2.472656,-1.496094c-1.351563,-0.363281 -3.09375,0.054688 -3.539063,1.621094c-1.722656,6.070297 -2.9375,13.734375 -2.796875,21.894516l0,0.000031zm0,0" fill="rgb(97.647095%,72.157288%,3.921509%)" fill-rule="nonzero" id="svg_6"/>
   <path d="m332.242188,173.945313c-0.445313,-0.152344 -0.929688,-0.238281 -1.460938,-0.25c-2.160156,-0.035156 -3.722656,1.214844 -4.675781,2.917969c-0.089844,0.117188 -0.164063,0.234375 -0.238281,0.351563c-2.109375,1.457031 -2.023438,3.882813 -0.957031,5.945313c-0.011719,0.105469 -0.03125,0.210938 -0.035156,0.320297c-0.101563,2.460953 1.457031,3.957031 3.425781,4.519531c0.894531,1.675781 3.894531,1.480469 4.710938,-0.300781c2.523438,-1.101547 4.015625,-3.683578 4.53125,-6.605469c0.605469,-3.414047 -1.3125,-7.582031 -5.300781,-6.898438l0,0.000015zm0,0" fill="rgb(98.823547%,86.274719%,60.00061%)" fill-rule="nonzero" id="svg_7"/>
   <path d="m393.757813,176.355469c-0.445313,-0.152344 -0.929688,-0.238281 -1.457031,-0.246094c-2.164063,-0.039063 -3.726563,1.214844 -4.679688,2.917969c-0.09375,0.113281 -0.167969,0.23439 -0.242188,0.347672c-2.105469,1.457031 -2.019531,3.886719 -0.953125,5.945297c-0.011719,0.10939 -0.03125,0.214844 -0.035156,0.320313c-0.101563,2.460938 1.457001,3.960938 3.425751,4.523438c0.894531,1.67189 3.894531,1.476563 4.707031,-0.304688c2.527344,-1.101563 4.019531,-3.683578 4.535187,-6.605469c0.605469,-3.410156 -1.3125,-7.582031 -5.300781,-6.898438zm0,0" fill="rgb(98.823547%,86.274719%,60.00061%)" fill-rule="nonzero" id="svg_8"/>
   <path d="m425.480469,159.425781c-2.320313,-2.445313 -3.789063,0.300781 -5.605469,1.292969c-1.914063,1.042969 -4.269531,1.785156 -6.039063,3.019531c-1.660156,1.160156 -3.640625,2.613281 -5.175781,3.882813c-1.546875,1.277344 -2.578125,4 -4.746094,3.449219c-3.714844,-9.941406 -11.390625,-15.925781 -20.703125,-20.269531c-0.351563,2.359375 2.542969,3.609375 3.882813,4.742188c3.105469,2.621094 5.308594,4.984375 7.761719,7.765625c3.003906,3.398453 6.214844,7.886719 7.335938,12.941422c2.488281,11.257797 -2.726563,24.78125 -7.765625,30.621078c-2.378906,2.757813 -6.238281,5.5625 -9.921875,7.761719c-4.089844,2.45314 -8.167969,4.355484 -12.9375,4.75c-11.304688,0.925781 -21.667969,-1 -28.46875,-3.882797c-5.363281,-2.277344 -8.015625,-3.957031 -11.214844,-7.76564c-3.976563,-4.730469 -7.160156,-10.164063 -9.921875,-15.527328c-1.527344,-9.230484 -0.992188,-18.417984 1.296875,-24.15625c3.628906,-9.101563 10.632813,-15.48439 18.976563,-19.839844c7.683594,-4.007813 22.414063,-9.136719 34.507813,-6.039063c1.871094,0.480469 2.839844,2.175781 4.742188,1.726563c-4.347656,-4.42189 -13.007813,-4.675781 -21.132813,-3.882813c-14.359375,1.402344 -27.679688,7.683594 -34.9375,15.960938c-6.257813,7.132813 -8.925781,15.613281 -9.488281,27.605469c-3.09375,-2.605469 -8.238281,-1.75 -14.234375,-2.589844c-2.574219,-0.359375 -8.632813,-3.894516 -9.492188,0.433594c-0.789063,3.980469 6.519531,4.816406 9.921875,5.175781c5.835938,0.613281 8.960938,-0.105469 13.804688,0c0.652344,7.847656 2.957031,12.421875 6.46875,17.683594c1.777344,2.664063 3.796875,5.679688 5.605469,7.332031c6.535156,5.957031 19.78125,10.742188 30.625,11.644531c9.539063,0.792969 13.355469,-1.214844 19.410156,-3.45314c6.390625,-2.355469 10.273438,-3.371078 14.234375,-7.332031c8.25,-8.25 16.375,-23.746078 13.371094,-37.09375c3.644531,-1.726547 7.019531,-4.746078 10.78125,-7.332016c3.328125,-2.28125 9.9375,-3.292984 9.058594,-8.625l0,-0.000015zm-61.679688,7.332031c2.09375,-0.078125 1.507813,2.519531 3.453125,2.585938c2.683594,-8.074219 -10.871094,-4.679688 -6.902344,0.867188c0.621094,-1.679688 1.101563,-3.5 3.449219,-3.453125zm-31.054688,5.609375c2.5,-0.519531 3.734375,-2.304688 6.902344,-2.15625c0.3125,-1.320313 -0.441406,-1.574219 -0.433594,-2.589844c-3.351563,-2.855469 -9.921875,0.847672 -6.46875,4.746094zm52.621094,2.585938c1.894531,-0.023438 2.3125,1.425781 3.882813,1.722672c4.992188,-3.910172 -4.546875,-9.070313 -3.882813,-1.722672zm-18.976563,19.839844c-13.394531,1.832031 -22.4375,-5.207031 -25.449219,-15.09375c-0.09375,-0.523438 -0.476563,-0.265625 -0.863281,0c0.316406,4.59375 5.097656,13.953125 9.058594,16.390625c3.898438,2.398453 12.21875,3.371094 17.683594,2.585953c6.652313,-0.95314 9.519531,-5.183594 12.507813,-9.058594c1.464813,-1.894531 3.984375,-3.917969 3.019501,-6.46875c-3.089813,5.617188 -8.496063,10.625 -15.957001,11.644531l0,-0.000015zm15.527344,50.464844c-0.554688,-0.878906 -2.417969,-0.453125 -2.589844,-1.722656c-0.335938,-3.839844 -3,-7.410172 -3.878906,-11.214844c-0.695313,-2.992188 0.46875,-7.34375 -3.019531,-8.628906c-2.683594,0.574219 -0.640625,4.675781 0,6.902328c3.625,12.67189 7.082031,28.070328 6.898438,42.70314c-11.425781,-0.898438 -21.058594,-4.039063 -33.640625,-2.585938c-1.722656,-11.308594 3.203125,-21.71875 2.15625,-32.351563c2.183594,-3.566422 1.390625,-10.10939 3.449219,-13.800781c-4.628906,-2.742188 -4.894531,2.132813 -6.039063,5.175781c-0.0625,-1.375 -0.976563,-1.898438 -0.863281,-3.45314c-3.5625,2.050781 -4.722656,6.085953 -7.332031,9.058594c-1.203125,1.371094 -3.027344,2.15625 -4.3125,3.449219c-4.90625,4.945313 -8.769531,10.679688 -12.941406,16.39064c-2.929688,-0.429703 -7.9375,-2.21875 -10.351563,-0.429703c0.582031,4.976578 7.566406,0.988281 9.921875,3.882828c-1.71875,2.113281 -7.277344,8.367188 -1.726563,9.917969c1.992188,-1.601563 2.160156,-5.027344 4.3125,-6.46875c1.53125,2.644531 2.847656,8.585938 5.175781,8.628906c3.191406,-1.074219 0.5,-4.242188 -0.429688,-6.042969c-1.207031,-2.335938 -2.855469,-4.914063 -3.449219,-6.902344c4.445313,-7.339844 9.855469,-13.71875 16.390625,-18.976563c1.199219,-1.824219 3.1875,-5.140625 4.742188,-5.175781c-2.890625,11.632813 -5.140625,23.902344 -5.605469,37.957031c-0.375,1.28125 1.84375,2.128906 0.863281,2.585938c-8.773438,-1.804688 -12.941406,2.589844 -12.941406,2.589844c-3.027344,3.878906 -7.757813,8.34375 -11.214844,10.351563c-3.132813,2.980469 -6.269531,6.855469 -9.921875,9.921875c-2.214844,-2.957031 -3.191406,-7.160156 -5.175781,-10.351563c-0.269531,-2.890625 -1.53125,-4.796875 -5.175781,-4.3125c-1.15625,1.4375 -1.777344,5.082031 -1.292969,7.761719c0.820313,4.546875 7.148438,15.253906 12.078125,14.234375c2.675781,-0.550781 2.359375,-3.953125 5.605469,-4.742188c0,0 1.625,-1.28125 2.15625,-2.589844c6.617188,-7.039063 13.886719,-13.433594 21.136719,-19.839844c2.796875,0.597687 5.132813,-0.933563 7.765625,-0.863281c1.507813,0.039063 3.039063,0.816437 4.742188,0.863281c1.503937,0.039063 3.109406,-0.863281 4.746094,-0.863281c1.042969,0 1.808594,1.125 3.019531,1.292969c2.332031,0.328156 5.335938,-0.242188 8.195313,0c7.953125,0.679718 19.730469,5.113281 22.429688,-1.726532c0.207031,-0.007813 0.140625,-2.59375 0,-2.585968c-0.792969,-9.847656 -0.972656,-20.304672 -3.882813,-28.039047l0,-0.000015zm31.839844,25.585938c-2.410187,-1.347656 -3.960938,-3.105469 -5.914063,-4.046875c-1.871094,-0.898438 -4.933594,-0.222656 -4.867188,-1.738281c2.546875,-2.773438 8.21875,-2.421875 10.351563,-5.609375c-3.535187,-3.226563 -9.152344,1.453125 -12.078156,3.019531c-5.171875,-9.335953 -10.714844,-18.941422 -15.960938,-27.605484c-1.816406,-3.003906 -3.222656,-6.464828 -6.039063,-8.628906c-1.828125,1.351563 -0.519531,3.105469 0,4.746094c1.820313,5.71875 4.785156,10.824219 7.332031,15.527344c3.609375,6.652328 7.832031,13.101547 10.785156,19.410141c0.410187,0.886719 2.003937,1.242188 1.9375,2.601563c-0.175781,2.84375 -0.839813,4.449219 -2.621063,5.691406c-0.0625,-0.003906 -1.71875,2.644531 -1.648468,2.621094c-0.25,1.230469 0.296906,3.34375 1.902344,2.890625c1.320313,-0.957001 7.386719,-5.96875 6.410156,-10.828125c2.269531,0.371094 5.097687,2.367188 4.945313,2.171875c3.441437,4.269531 6.90625,0.625 5.464844,-0.222656l0.000031,0.000031zm-62.464844,10.648438c-2.316406,1.78125 -2.9375,5.199219 -4.746094,7.765625c-2.101563,2.984375 -4.867188,5.484375 -6.898438,8.625c-2.191406,3.378906 -3.808594,6.964844 -6.472656,9.058594c-1.730469,-2.441406 -4.320313,-4.015625 -5.175781,-7.332031c-2.441406,-1.671875 -3.585938,-7.964844 -8.195313,-4.746094c-0.882813,6.515625 2.175781,10.441406 5.609375,14.234375c2.851563,3.148468 5.152344,5.835968 9.488281,5.175781c6.226563,-9.734375 13.46875,-18.449219 19.410156,-28.46875c0.882813,-0.414063 1.707031,-0.878906 2.585938,-1.296875c0.398438,-0.753906 0.152344,-2.148438 0.863281,-2.585938c2.976563,0.386719 3.46875,-1.707031 5.609375,-2.15625c-4.257813,-1.296875 -9.382813,-0.34375 -12.078125,1.726563zm0,0" fill="rgb(9.803772%,38.430786%,47.450256%)" fill-rule="evenodd" id="svg_9"/>
  </g>
 </g>

</svg>