<?xml version="1.0" encoding="UTF-8" standalone="no"?>
<!DOCTYPE svg PUBLIC "-//W3C//DTD SVG 1.1//EN"
"http://www.w3.org/Graphics/SVG/1.1/DTD/svg11.dtd">


<!-- Page 1 -->
<svg x="0" y="0" width="1145" height="572" viewBox="0 0 1145 572" version="1.1" xmlns="http://www.w3.org/2000/svg" xmlns:xlink="http://www.w3.org/1999/xlink"
style="display: block;margin-left: auto;margin-right: auto;">
<defs>

<style type="text/css"><![CDATA[

.g5_1{
fill: #196279;
}
.g2_1{
fill: #3ABBE6;
}
.g3_1{
fill: #F9B80A;
}
.g4_1{
fill: #FCDC99;
}
.g1_1{
fill: #1F7996;
}


]]></style>

</defs>
<path d="M0,0
L0,572
L1145,572
L1145,0 Z " 
fill="#FFFFFF" stroke="none" />
<path d="M65.1,204.3c0,-9.5,-2.6,-16.9,-7.9,-22.1C52,177.1,44.5,174.5,34.9,174.5c-3.1,0,-4.6,-1.3,-4.6,-3.9c0,-1.7,0.6,-2.9,1.9,-3.5c1.3,-0.5,4.1,-0.8,8.5,-0.8c0,0,22.6,0.3,22.6,0.3c5.2,0,9.8,-0.1,13.9,-0.3c6.2,-0.4,14.8,-1.1,25.7,-2.1c14.7,-1.3,26.4,-2,35,-2c33.6,0,60.6,8.6,80.9,25.8c20.3,17.2,30.4,40.1,30.4,68.7c0,36.8,-13.6,66.1,-40.9,87.9c-20,16,-42.6,24,-67.7,24c-4.2,0,-12.6,-0.4,-25.2,-1.2c-7.1,-0.4,-14.5,-0.6,-22,-0.6c-17.7,0,-29.4,0.5,-35.3,1.5c-4.5,0.8,-7.6,1.2,-9.2,1.2c-2.3,0,-3.4,-1.5,-3.4,-4.3c0,-2,1.2,-3.3,3.7,-3.8c6.1,-1.1,10.3,-3.7,12.6,-7.5c2.2,-3.9,3.3,-10.6,3.3,-20c0,0,0,-129.6,0,-129.6Zm34.2,-8.1c0,0,0,130.7,0,130.7c0,0,1.8,13.6,1.8,13.6c3.3,11.5,15.6,17.2,36.8,17.2c23,0,41.3,-7.9,54.8,-23.9c13.5,-15.9,20.2,-37.4,20.2,-64.5c0,-28.4,-8.1,-51.5,-24.3,-69.3C172.4,182.1,151.4,173.2,125.7,173.2c-10.5,0,-17.7,1.4,-21.6,4.1c-3.2,2.2,-4.8,8.5,-4.8,18.9Z" class="g1_1" />
<path d="M330.8,321.9c0,0,1.2,14.8,1.2,14.8c1.2,7.7,4.1,13.5,8.7,17.6c4.6,4.1,10.6,6.1,18.1,6.1c4.8,0,7.3,1.5,7.3,4.5c0,2.8,-3.3,4.3,-9.7,4.3c-2.8,0,-6.8,-0.3,-11.9,-0.8c-12.9,-1.4,-23.4,-2,-31.4,-2c-10,0,-17.8,0.5,-23.5,1.6c-5,1,-8.6,1.5,-10.8,1.5c-2.1,0,-3.5,-1.1,-4.1,-3.1c0,0,-0.3,-1.2,-0.3,-1.2c0,0,4.3,-3.5,4.3,-3.5c7.1,-2.5,11.9,-5.7,14.2,-9.4c2.3,-3.7,3.5,-9.9,3.5,-18.5c0,0,0.2,-13.3,0.2,-13.3c0,0,0,-118.6,0,-118.6c0,-9.1,-1.6,-15.6,-4.8,-19.5c-3.2,-3.9,-9,-6.5,-17.4,-7.7c-5.1,-0.8,-8.3,-1.6,-9.8,-2.3c-1.4,-0.8,-2.1,-2.1,-2.1,-3.8c0,-2.8,1.2,-4.2,3.5,-4.1c1.8,0.1,4.5,0.5,8.1,1.2c3.5,0.8,9.6,1.2,18,1.2c5.5,0,12.4,-0.3,20.7,-1c0,0,10.8,-0.9,10.8,-0.9c10.3,-0.8,18.1,-1.2,23.6,-1.2c3.2,0,4.9,1.2,4.9,3.6c0,1.8,-0.3,2.9,-0.8,3.5c-0.5,0.6,-1.7,1.1,-3.7,1.4c-7.1,1.2,-11.7,3.2,-13.8,5.9c-2,2.8,-3,8.5,-3,17c0,0,0,126.7,0,126.7Z" class="g2_1" />
<path d="M540.4,144.3c27,0,50.6,5.7,70.7,17.3c0,0,14.3,8.3,14.3,8.3c2.9,1.7,5.5,2.6,7.8,2.6c2.9,0,5.1,-1.2,6.5,-3.5c0,0,4.6,-6.7,4.6,-6.7c0.7,-1.2,2,-1.8,3.9,-1.8c4.5,0,6.7,4.7,6.7,14.1c0,0,0.2,15.9,0.2,15.9c0,0,0,19.7,0,19.7c0,0,1.8,16.5,1.8,16.5c0,0,1.9,9.8,1.9,9.8c0.9,4.7,1.3,9,1.3,12.8c0,5.5,-2,8.2,-6,8.2c-2.4,0,-3.9,-1.7,-4.6,-5.2c-1.2,-5.5,-5.2,-13.9,-12,-25.3C630.6,215.7,624,206.7,617.8,200C592.7,172.8,564.7,159.2,533.9,159.2c-27.4,0,-49.6,11.3,-66.6,33.8c-17.1,22.5,-25.6,51.6,-25.6,87.5c0,46.9,13.9,84.2,41.8,112.2c21,20.8,43.9,31.2,68.6,31.2c14.6,0,30.1,-3.5,46.4,-10.5c16.4,-7,29.2,-15.8,38.6,-26.2c0,0,14.1,-15.4,14.1,-15.4c2.1,-2.3,4,-3.5,5.9,-3.7c2.7,-0.1,4.1,1.5,4.1,4.8c0,5.9,-5.7,15.4,-17.1,28.4c-30,33.9,-66.9,50.8,-110.9,50.8c-42.5,0,-77,-13.6,-103.6,-40.8C403.1,384.1,389.8,348.8,389.8,305.2c0,-23.8,5,-47.2,15,-70c10,-22.9,23.3,-41.5,39.9,-55.8C472,156,503.9,144.3,540.4,144.3Z" class="g2_1" />
<path d="M820.7,265.8c0,0,-70.5,0,-70.5,0c-7.1,0,-11.4,0.9,-13,2.7c-1.7,1.9,-2.5,6.7,-2.5,14.6c0,0,0,37,0,37c0,14.1,2.3,24.2,6.8,30.4c4.6,6.2,12.1,9.4,22.5,9.4c3.4,0,5.1,1.2,5.1,3.8c0,3.1,-2.6,4.6,-7.8,4.6c-1.7,0,-5.3,-0.3,-10.5,-0.9c-11.7,-1.3,-22.5,-2,-32.3,-2c-6.2,0,-14.4,0.5,-24.6,1.6c-6,0.7,-9.9,1,-11.4,1c-3.2,0,-4.8,-1.6,-4.8,-4.9c0,-2.1,1.2,-3.2,3.7,-3.5c6.8,-1.1,11.6,-4.2,14.5,-9.3c3,-5,4.4,-12.7,4.4,-23c0,0,0.2,-8.1,0.2,-8.1c0,0,0,-124.1,0,-124.1c0,-7.2,-2,-12.6,-5.9,-16c-3.9,-3.4,-11.2,-6.2,-21.8,-8.3c-2.8,-0.6,-4.2,-2,-4.2,-4.3c0,-2.9,1.6,-4.3,4.8,-4.3c1.8,0,5,0.3,9.8,1c8,1.2,17.5,1.8,28.3,1.8c3.7,0,11.5,-0.6,23.5,-1.9c7.1,-0.7,12.5,-1,16.2,-1c3.6,0,5.4,1.3,5.4,4c0,2.2,-1.5,3.5,-4.3,4c-11.7,2,-17.6,9.4,-17.6,22.2c0,0,0,38.2,0,38.2c0,10.1,0.7,16.1,2.2,17.8c1.4,1.7,6.2,2.6,14.3,2.6c0,0,69.5,0,69.5,0c6.1,0,9.8,-1.2,11.1,-3.6c1.4,-2.5,2,-9.2,2,-20.2c0,0,0,-32,0,-32c0,-12.7,-7,-20.3,-21,-22.9c0,0,-6.8,-1.4,-6.8,-1.4c-2.8,-0.5,-4.2,-1.9,-4.2,-4.3c0,-2.9,1.6,-4.3,4.8,-4.3c1.8,0,5,0.3,9.8,1c8.1,1.2,17.6,1.8,28.4,1.8c3.8,0,11.6,-0.6,23.6,-1.9c7.1,-0.7,12.5,-1,16.2,-1c3.5,0,5.3,1.3,5.3,4c0,2.2,-1.4,3.5,-4.3,4c-11.7,2,-17.5,9.4,-17.5,22.2c0,0,0,127.8,0,127.8c0,14.1,2.2,24.2,6.7,30.4c4.5,6.2,11.9,9.4,22.1,9.4c3.7,0,5.5,1.2,5.5,3.8c0,3.1,-2.5,4.6,-7.7,4.6c-1.8,0,-5.3,-0.3,-10.4,-0.9c-11.8,-1.3,-22.6,-2,-32.3,-2c-6.3,0,-14.5,0.5,-24.7,1.6c-6.1,0.7,-9.9,1,-11.5,1c-3.2,0,-4.7,-1.6,-4.7,-4.9c0,-2.1,1.2,-3.2,3.7,-3.5c6.7,-1.1,11.6,-4.2,14.5,-9.3c2.9,-5,4.4,-12.7,4.4,-23c0,0,0.1,-8.1,0.1,-8.1c0,0,0,-32.7,0,-32.7c0,-9.7,-0.6,-15.6,-1.9,-17.7c-1.3,-2,-5,-3,-11.2,-3Z" class="g2_1" />
<path d="M975.4,198.1c0,0,0,32.3,0,32.3c0,9.2,0.6,15,2,17.5c1.3,2.5,4.6,3.7,9.7,3.7c0,0,4.5,-0.1,4.5,-0.1c0,0,6.5,-0.1,6.5,-0.1c0,0,12.7,0,12.7,0c9.8,0,17.4,-5.5,22.8,-16.3c0,0,3.4,-7.3,3.4,-7.3c0.9,-1.7,2.4,-2.7,4.4,-2.8c2.2,-0.1,3.3,1.2,3.3,4c0,0.8,-0.1,3,-0.4,6.6c-0.2,2.6,-0.3,4.7,-0.3,6.5c0,3.2,0.4,10.6,1.3,22.3c0.6,7.7,0.9,14.3,0.9,20c0,0,0.2,7.6,0.2,7.6c0,1.4,-0.2,2.3,-0.5,2.8c-0.4,0.6,-1.2,1,-2.4,1.1c-2.5,0.2,-4,-1.7,-4.6,-5.7c-1.3,-8.4,-4.3,-14.8,-8.9,-19.2c-2.6,-2.4,-5.7,-3.9,-9.5,-4.6c-3.7,-0.7,-10.7,-1.1,-20.9,-1.1c0,0,-10.1,0,-10.1,0c-4.8,0,-8,0.8,-9.7,2.2c-1.8,1.4,-3,4.3,-3.5,8.7c-0.6,5,-0.9,12.8,-0.9,23.5c0,0,0,13.4,0,13.4c0,14,1.1,24.1,3.2,30.2c1.7,4.5,3.7,7.5,6,9.1c2.3,1.6,5.8,2.4,10.6,2.4c40.2,0,66.6,-12.3,79,-36.8c0.7,-1.2,1.3,-1.8,1.8,-1.9c1,-0.2,1.9,0.1,2.7,1c0.9,0.8,1.3,1.9,1.3,3.2c0,9.7,-2.6,19.1,-7.9,28.2c-4.4,7.8,-9.8,13.3,-16.4,16.6c-6.5,3.4,-15.2,5,-26,5c-6.4,0,-13.4,-0.4,-21.1,-1.2c0,0,-17.3,-1.6,-17.3,-1.6c-6.4,-0.6,-14.9,-0.9,-25.8,-0.9c-7.2,0,-18.2,0.4,-33,1.3c-4.1,0.3,-7,0.5,-8.8,0.5c-2.4,0,-3.7,-1.1,-3.9,-3.3c-0.1,-1.8,1,-3.1,3.3,-4c5.7,-2.2,9.5,-4.5,11.6,-6.9c2,-2.5,3.6,-6.8,4.8,-13.1c1.1,-5.2,1.6,-12.4,1.6,-21.4c0,0,0,-118,0,-118c0,-11.1,-1.8,-18.7,-5.4,-22.6c-3.6,-4,-11.1,-6.8,-22.6,-8.4c-2.6,-0.4,-4,-1.8,-4,-4.3c0,-2.3,1.7,-3.4,4.9,-3.4c0.7,0,2.2,0.1,4.5,0.3c1.8,0.1,4.2,0.1,7.3,0.1c0,0,15,0.6,15,0.6c0,0,56.4,0.6,56.4,0.6c32.5,0,52.5,-0.4,60,-1.3c0.8,-0.1,1.5,-0.2,2.1,-0.2c2.9,0,4.3,1.7,4.3,5c0,2.2,0.3,6.3,0.9,12.2c0.8,8.6,1.2,14.8,1.2,18.6c0,7.5,-1.9,11.4,-5.8,11.6c-1.9,0.1,-2.8,-2.1,-2.8,-6.6c0,-9.8,-3.6,-16.9,-10.8,-21.3c-7.2,-4.4,-18.8,-6.7,-34.9,-6.7c0,0,-18.2,0,-18.2,0c0,0,-10.1,1.2,-10.1,1.2c-5.1,1.6,-7.6,6.6,-7.6,15.1c0,0,-0.1,6.1,-0.1,6.1Z" class="g2_1" />
<path d="M529,379.5c-1,8.8,-0.6,19,0.6,28.4c0.4,3.3,3.5,4.8,6.2,4c1.4,0.7,2.9,0.9,4.6,0.5c0.2,0.1,0.3,0.3,0.4,0.4c3.2,2.1,6.3,1.3,9,-1c0.9,-0.4,1.7,-1.2,2.3,-2.3c0.5,-0.7,1,-1.3,1.5,-2c1,-0.5,1.9,-1.3,2.5,-2.7c1.3,-2.7,2.7,-5.8,4,-9.1c0.3,-0.8,0.6,-1.6,1,-2.4c0.4,-0.8,0.6,-1.6,0.6,-2.3c2.6,-8.4,3.7,-17,-0.3,-22.9c0.5,-6.5,0.3,-12.8,-1.3,-17.8c0.1,-0.9,0.2,-1.8,0.2,-2.7c0.2,-2.2,-1.8,-3.4,-3.9,-3.5c-0.9,-0.9,-1.9,-1.7,-3.2,-2.4c-1.7,-0.9,-4.6,-0.1,-5.5,1.7c-2,-0.3,-4.2,0.6,-4.7,2.5c0,0,-0.1,0.2,-0.1,0.2c-0.1,0.1,-0.2,0.2,-0.3,0.2c-0.1,-0.1,-0.1,-0.3,-0.2,-0.4c-0.5,-1.6,-2.1,-2.3,-3.8,-2.3c-2,-0.6,-4.7,0.1,-5.4,2.5c-2.6,9.2,-4.4,20.9,-4.2,33.4Z" class="g3_1" />
<path d="M507.6,265.7c-0.7,-0.2,-1.4,-0.3,-2.2,-0.3c-3.3,-0.1,-5.7,1.8,-7.2,4.4c-0.1,0.2,-0.2,0.4,-0.3,0.6c-3.3,2.2,-3.1,5.9,-1.5,9c0,0.2,-0.1,0.4,-0.1,0.5c-0.1,3.8,2.3,6.1,5.3,6.9c1.3,2.6,5.9,2.3,7.2,-0.4c3.8,-1.7,6.1,-5.6,6.9,-10.1c0.9,-5.2,-2,-11.6,-8.1,-10.6Z" class="g4_1" />
<path d="M601.6,269.4c-0.7,-0.2,-1.4,-0.3,-2.3,-0.3c-3.3,-0.1,-5.6,1.8,-7.1,4.4c-0.1,0.2,-0.3,0.4,-0.4,0.5c-3.2,2.3,-3.1,6,-1.4,9.1c0,0.2,-0.1,0.4,-0.1,0.5c-0.1,3.8,2.2,6.1,5.3,6.9c1.3,2.6,5.9,2.3,7.1,-0.4c3.9,-1.7,6.2,-5.7,7,-10.1c0.9,-5.2,-2,-11.6,-8.1,-10.6Z" class="g4_1" />
<path fill-rule="evenodd" d="M650,243.6c-3.5,-3.8,-5.7,0.4,-8.5,1.9c-2.9,1.6,-6.5,2.8,-9.3,4.7c-2.5,1.7,-5.5,3.9,-7.9,5.9c-2.3,1.9,-3.9,6.1,-7.2,5.3c-5.7,-15.2,-17.4,-24.4,-31.6,-31c-0.6,3.6,3.8,5.5,5.9,7.2c4.7,4,8.1,7.7,11.9,11.9c4.5,5.2,9.4,12,11.2,19.8c3.8,17.2,-4.2,37.8,-11.9,46.8c-3.6,4.2,-9.5,8.5,-15.2,11.8c-6.2,3.8,-12.4,6.7,-19.7,7.3c-17.3,1.4,-33.1,-1.6,-43.5,-6c-8.2,-3.4,-12.3,-6,-17.2,-11.8c-6,-7.3,-10.9,-15.6,-15.1,-23.7c-2.3,-14.2,-1.5,-28.2,2,-37c5.5,-13.9,16.2,-23.6,29,-30.3c11.7,-6.1,34.2,-13.9,52.7,-9.2c2.8,0.7,4.3,3.3,7.2,2.6c-6.6,-6.7,-19.9,-7.1,-32.3,-5.9c-21.9,2.2,-42.3,11.8,-53.3,24.4c-9.6,10.9,-13.7,23.9,-14.5,42.2c-4.8,-4,-12.6,-2.7,-21.8,-4c-3.9,-0.5,-13.2,-5.9,-14.5,0.7c-1.2,6.1,10,7.3,15.2,7.9c8.9,0.9,13.7,-0.2,21.1,0c1,12,4.5,19,9.8,27c2.8,4.1,5.8,8.7,8.6,11.2c10,9.1,30.2,16.4,46.8,17.8c14.6,1.2,20.4,-1.9,29.7,-5.3c9.7,-3.6,15.7,-5.1,21.7,-11.2c12.6,-12.6,25,-36.3,20.4,-56.7c5.6,-2.6,10.8,-7.2,16.5,-11.2c5.1,-3.4,15.2,-5,13.8,-13.1Zm-94.2,11.2c3.2,-0.2,2.3,3.8,5.3,3.9c4.1,-12.3,-16.6,-7.1,-10.6,1.3c1,-2.5,1.7,-5.3,5.3,-5.2Zm-47.4,8.5c3.8,-0.8,5.7,-3.5,10.5,-3.3c0.5,-2,-0.7,-2.4,-0.7,-3.9c-5.1,-4.4,-15.1,1.3,-9.8,7.2Zm80.4,4c2.8,0,3.5,2.2,5.9,2.6c7.6,-6,-7,-13.8,-5.9,-2.6Zm-29,30.3c-20.5,2.8,-34.3,-8,-38.9,-23.1c-0.2,-0.8,-0.7,-0.4,-1.3,0c0.5,7.1,7.8,21.4,13.8,25.1c6,3.6,18.7,5.1,27,3.9c10.2,-1.4,14.6,-7.9,19.1,-13.8c2.3,-2.9,6.1,-6,4.6,-9.9c-4.7,8.6,-12.9,16.2,-24.3,17.8Zm23.7,77.1c-0.9,-1.3,-3.7,-0.7,-4,-2.6c-0.5,-5.9,-4.6,-11.4,-5.9,-17.2c-1.1,-4.5,0.7,-11.2,-4.6,-13.1c-4.1,0.8,-1,7.1,0,10.5c5.5,19.4,10.8,42.9,10.5,65.2c-17.4,-1.3,-32.1,-6.1,-51.4,-3.9c-2.6,-17.3,4.9,-33.2,3.3,-49.4c3.4,-5.5,2.2,-15.5,5.3,-21.1c-7.1,-4.2,-7.5,3.2,-9.2,7.9c-0.1,-2.1,-1.5,-2.9,-1.3,-5.3c-5.5,3.1,-7.3,9.3,-11.2,13.8c-1.9,2.1,-4.7,3.3,-6.6,5.3c-7.5,7.6,-13.4,16.3,-19.8,25.1c-4.5,-0.7,-12.1,-3.4,-15.8,-0.7c0.9,7.6,11.5,1.5,15.1,5.9c-2.6,3.3,-11.1,12.8,-2.6,15.2c3,-2.5,3.3,-7.7,6.6,-9.9c2.3,4,4.3,13.1,7.9,13.2c4.9,-1.7,0.8,-6.5,-0.7,-9.2c-1.8,-3.6,-4.3,-7.6,-5.2,-10.6c6.8,-11.2,15,-21,25,-29c1.8,-2.8,4.9,-7.8,7.3,-7.9c-4.5,17.8,-7.9,36.5,-8.6,58c-0.6,2,2.8,3.3,1.3,4c-13.4,-2.8,-19.8,3.9,-19.8,3.9c-4.6,5.9,-11.8,12.8,-17.1,15.8c-4.8,4.6,-9.6,10.5,-15.2,15.2c-3.3,-4.5,-4.8,-11,-7.9,-15.8c-0.4,-4.5,-2.3,-7.4,-7.9,-6.6c-1.7,2.2,-2.7,7.7,-1.9,11.8c1.2,7,10.9,23.3,18.4,21.8c4.1,-0.9,3.6,-6.1,8.6,-7.3c0,0,2.5,-1.9,3.3,-3.9c10.1,-10.8,21.2,-20.5,32.3,-30.3c4.2,0.9,7.8,-1.5,11.8,-1.4c2.3,0.1,4.7,1.3,7.3,1.4c2.3,0,4.7,-1.4,7.2,-1.4c1.6,0.1,2.8,1.8,4.6,2c3.6,0.5,8.2,-0.3,12.5,0c12.2,1.1,30.2,7.8,34.3,-2.6c0.3,0,0.2,-4,0,-4c-1.2,-15,-1.5,-31,-5.9,-42.8Zm48.6,39.1c-3.7,-2.1,-6,-4.8,-9,-6.2c-2.9,-1.4,-7.5,-0.3,-7.4,-2.7c3.8,-4.2,12.5,-3.6,15.8,-8.5c-5.4,-5,-14,2.2,-18.5,4.6c-7.9,-14.3,-16.3,-28.9,-24.4,-42.2c-2.7,-4.6,-4.9,-9.9,-9.2,-13.2c-2.8,2.1,-0.8,4.8,0,7.3c2.8,8.7,7.3,16.5,11.2,23.7c5.5,10.2,12,20,16.5,29.7c0.6,1.3,3.1,1.9,2.9,3.9c-0.2,4.4,-1.2,6.8,-4,8.7c0,0,-2.6,4.1,-2.5,4c-0.4,1.9,0.5,5.1,2.9,4.5c2.1,-1.5,11.3,-9.2,9.8,-16.6c3.5,0.6,7.8,3.6,7.6,3.3c5.2,6.6,10.5,1,8.3,-0.3Zm-95.4,16.3c-3.5,2.7,-4.5,7.9,-7.3,11.8c-3.2,4.6,-7.4,8.4,-10.5,13.2c-3.3,5.2,-5.8,10.6,-9.9,13.8c-2.6,-3.7,-6.6,-6.1,-7.9,-11.2c-3.7,-2.5,-5.5,-12.1,-12.5,-7.2c-1.4,9.9,3.3,15.9,8.6,21.7c4.3,4.8,7.8,8.9,14.5,7.9c9.5,-14.8,20.5,-28.1,29.6,-43.5c1.4,-0.6,2.6,-1.3,4,-1.9c0.6,-1.2,0.2,-3.3,1.3,-4c4.5,0.6,5.3,-2.6,8.5,-3.3c-6.5,-2,-14.3,-0.5,-18.4,2.7Z" class="g5_1" />

<title>DICHE_logo_concept3 Page1</title>
</svg>
