<?xml version="1.0" encoding="UTF-8" standalone="no"?>
<!DOCTYPE svg PUBLIC "-//W3C//DTD SVG 1.1//EN"
"http://www.w3.org/Graphics/SVG/1.1/DTD/svg11.dtd">


<!-- Page 1 -->
<svg x="0" y="0" width="1145" height="265" viewBox="0 0 1145 265" version="1.1" xmlns="http://www.w3.org/2000/svg" xmlns:xlink="http://www.w3.org/1999/xlink"
style="display: block;margin-left: auto;margin-right: auto;">
<defs>

<style type="text/css"><![CDATA[

.g1_1{
fill: #007EE5;
}


]]></style>

</defs>
<path d="M0,0
L0,265
L1145,265
L1145,0 Z " 
fill="#FFFFFF" stroke="none" />
<path d="M375.6,184.3c29.9,0,46.2,-19.1,46.2,-49.4c0,-30.6,-16.3,-49.8,-46.2,-49.8l-21.6,0l0,99.2ZM321.6,56.6l55.3,0c47.4,0,77.3,30.6,77.3,78.3c0,47.7,-29.9,78.3,-77.3,78.3l-55.3,0Z" class="g1_1" />
<path d="M538.1,130.3c-4.3,-2.6,-9.9,-3.8,-15.8,-3.8c-10.7,0,-19.4,5.6,-21.7,16l0,70.7l-31.6,0l0,-114l31.6,0l0,11.2c4.9,-8.2,14.3,-13.8,25.5,-13.8c5.4,0,10.2,1,12,2.1Z" class="g1_1" />
<path d="M601.2,123.4c-15.8,0,-24.5,13.8,-24.5,32.9c0,18.9,8.7,32.6,24.5,32.6c15.8,0,24.5,-13.7,24.5,-32.6c0,-19.1,-8.7,-32.9,-24.5,-32.9m0,92.3c-33.2,0,-55.9,-24.5,-55.9,-59.4c0,-35.2,22.7,-59.7,55.9,-59.7c33.1,0,55.8,24.5,55.8,59.7c0,34.9,-22.7,59.4,-55.8,59.4Z" class="g1_1" />
<path d="M702.2,174.9c3.8,7.9,12.2,13.3,21.4,13.3c17.1,0,27.3,-13.8,27.3,-31.9c0,-18.4,-10.2,-32.1,-27.3,-32.1c-9.4,0,-17.6,5.6,-21.4,13.2Zm0,80.3l-31.6,0l0,-156l31.6,0l0,9.4c5.1,-6.1,16.3,-12,28.6,-12c33.1,0,52,27.6,52,59.7c0,32.1,-18.9,59.4,-52,59.4c-12.3,0,-23.5,-5.9,-28.6,-12Z" class="g1_1" />
<path d="M828.2,174.9c3.6,7.9,12,13.3,21.4,13.3c17.1,0,27.3,-13.8,27.3,-31.9c0,-18.4,-10.2,-32.1,-27.3,-32.1c-9.2,0,-17.8,5.6,-21.4,13.2Zm0,38.3l-31.9,0l0,-165.8l31.9,0l0,61.2c5.1,-6.1,16.3,-12,28.6,-12c33.1,0,51.7,27.1,51.7,59.7c0,32.6,-18.6,59.4,-51.7,59.4c-12.3,0,-23.5,-5.9,-28.6,-12Z" class="g1_1" />
<path d="M975.7,123.8c-15.8,0,-24.5,13.7,-24.5,32.9c0,18.8,8.7,32.6,24.5,32.6c15.8,0,24.5,-13.8,24.5,-32.6c0,-19.2,-8.7,-32.9,-24.5,-32.9m0,92.3c-33.1,0,-55.8,-24.5,-55.8,-59.4C919.9,121.5,942.6,97,975.7,97c33.2,0,55.9,24.5,55.9,59.7c0,34.9,-22.7,59.4,-55.9,59.4Z" class="g1_1" />
<path d="M1102.7,154.3l41.5,58.9l-34.9,0l-24.5,-35.7l-24.7,35.7l-33.2,0L1068,155.1L1029.2,99.2l35,0l21.9,32.4l22.4,-32.4l33.2,0Z" class="g1_1" />
<path d="M83.8,2.8L1.6,55.9l56.9,46L141.3,50.8Z" class="g1_1" />
<path d="M1.6,146.9L83.8,201l57.5,-48L58.5,101.9Z" class="g1_1" />
<path d="M141.3,153l57.4,48l82.1,-53.6L224,101.9Z" class="g1_1" />
<path d="M280.8,56.4L198.7,2.8l-57.4,48L224,101.9Z" class="g1_1" />
<path d="M141.4,163.3L83.8,211.1L59.1,195l0,18.1l82.3,49.3l82.3,-49.3l0,-18.1L199,211.1Z" class="g1_1" />

<title>dropbox_blue Page1</title>
</svg>
